<svg xmlns="http://www.w3.org/2000/svg" width="17.752" height="18.716" viewBox="0 0 17.752 18.716"><defs><style>.a{fill:#e06262;}.b{fill:#faa2a2;}.c{fill:#fbc7c7;}</style></defs><g transform="translate(382.83 -155.932)"><path class="a" d="M-371.074,167.485a1.608,1.608,0,0,1,1.558,1.65v6.619a1.606,1.606,0,0,1-1.558,1.65h-10.2a1.605,1.605,0,0,1-1.559-1.65v-6.618a1.611,1.611,0,0,1,1.562-1.654Z" transform="translate(0 -2.758)"/><rect class="b" width="13.314" height="9.92" rx="2.011" transform="translate(-381.785 164.728)"/><circle class="a" cx="1.044" cy="1.044" r="1.044" transform="translate(-376.042 167.078)"/><path class="a" d="M-373.5,173.169l-1.106,2.2a.511.511,0,0,0,.5.521h2.11a.512.512,0,0,0,.523-.5v-.021a8.482,8.482,0,0,0-1.106-2.2Z" transform="translate(-1.964 -4.115)"/><path class="a" d="M-361.968,163.019v-3.171a3.916,3.916,0,0,0-3.915-3.916h0a3.916,3.916,0,0,0-3.916,3.916v4.88h1.567v-4.58a2.349,2.349,0,0,1,2.349-2.349h0a2.35,2.35,0,0,1,2.349,2.349v2.871Z" transform="translate(-3.111 0)"/><path class="c" d="M-365.46,157.2c-.1.014.012,0,.048,0,.084-.008.169-.011.254-.014a4.22,4.22,0,0,1,.814.053,2.643,2.643,0,0,1,1.862,1.145,3.357,3.357,0,0,1,.429,1.76.2.2,0,0,0,.206.186.2.2,0,0,0,.186-.186,3.219,3.219,0,0,0-1.3-2.8,3.817,3.817,0,0,0-2.081-.553,3.647,3.647,0,0,0-.516.033c-.248.035-.143.412.105.377Z" transform="translate(-4.088 -0.205)"/><path class="c" d="M-367.872,158.256a1.655,1.655,0,0,0-.295.438,2.868,2.868,0,0,0-.285,1.264.2.2,0,0,0,.206.186.2.2,0,0,0,.185-.186,2.561,2.561,0,0,1,.075-.632,2.546,2.546,0,0,1,.084-.27l.02-.053c.008-.022.009-.023,0,0l.013-.032c.014-.032.03-.063.046-.094a2.066,2.066,0,0,1,.172-.283c.032-.044-.027.032.006-.007l.026-.031.023-.024a.2.2,0,0,0-.006-.277.2.2,0,0,0-.272,0Z" transform="translate(-3.432 -0.541)"/></g></svg>