<svg xmlns="http://www.w3.org/2000/svg" width="31.518" height="30.898" viewBox="0 0 31.518 30.898"><defs><style>.a{fill:#0c6090;}</style></defs><g transform="translate(-787.356 -353.042)"><path class="a" d="M817.885,408.92h-29.54a.99.99,0,0,1-.989-.989V393.768h31.518v14.164A.99.99,0,0,1,817.885,408.92Zm-29.775-14.4v13.409a.235.235,0,0,0,.234.234h29.54a.235.235,0,0,0,.234-.234V394.522Z" transform="translate(0 -24.98)"/><path class="a" d="M791.9,387.541h-4.548v-3.878a1.279,1.279,0,0,1,1.278-1.277h3.27Zm-3.793-.754h3.039V383.14h-2.515a.524.524,0,0,0-.523.523Z" transform="translate(0 -17.999)"/><path class="a" d="M858.668,381.091h-6.434v-9.221h5.24a1.2,1.2,0,0,1,1.194,1.194Zm-5.679-.754h4.925v-7.272a.44.44,0,0,0-.44-.44h-4.485Z" transform="translate(-39.794 -11.549)"/><path class="a" d="M819.213,369.529H797.167V354.149a1.108,1.108,0,0,1,1.106-1.107h19.69a1.251,1.251,0,0,1,1.25,1.25Zm-21.291-.754h20.537V354.292a.5.5,0,0,0-.495-.5h-19.69a.352.352,0,0,0-.352.352Z" transform="translate(-6.018)"/><g transform="translate(793.315 355.69)"><path class="a" d="M810.318,376.038h-7.549v-1.674a3.774,3.774,0,0,1,7.549,0Zm-6.794-.754h6.04v-.919a3.02,3.02,0,1,0-6.04,0Z" transform="translate(-802.769 -366.453)"/><path class="a" d="M808.662,364.769a2.439,2.439,0,1,1,2.439-2.439A2.442,2.442,0,0,1,808.662,364.769Zm0-4.123a1.685,1.685,0,1,0,1.685,1.685A1.686,1.686,0,0,0,808.662,360.645Z" transform="translate(-804.888 -359.891)"/></g><g transform="translate(805.758 356.885)"><path class="a" d="M839.56,363.736h-4.23a.377.377,0,1,1,0-.754h4.23a.377.377,0,0,1,0,.754Z" transform="translate(-834.952 -362.982)"/><path class="a" d="M839.56,367.511h-4.23a.377.377,0,1,1,0-.754h4.23a.377.377,0,0,1,0,.754Z" transform="translate(-834.952 -365.297)"/><path class="a" d="M839.56,371.286h-4.23a.377.377,0,0,1,0-.755h4.23a.377.377,0,0,1,0,.755Z" transform="translate(-834.952 -367.612)"/><path class="a" d="M839.56,375.06h-4.23a.377.377,0,1,1,0-.754h4.23a.377.377,0,0,1,0,.754Z" transform="translate(-834.952 -369.928)"/></g></g></svg>