<svg xmlns="http://www.w3.org/2000/svg" xmlns:xlink="http://www.w3.org/1999/xlink" width="72.711" height="72.71" viewBox="0 0 72.711 72.71"><defs><style>.a{fill:#fff;}.b{fill:#395196;}.c{filter:url(#a);}</style><filter id="a" x="0" y="0" width="72.711" height="72.71" filterUnits="userSpaceOnUse"><feOffset dy="3" input="SourceAlpha"/><feGaussianBlur stdDeviation="3" result="b"/><feFlood flood-opacity="0.161"/><feComposite operator="in" in2="b"/><feComposite in="SourceGraphic"/></filter></defs><g transform="translate(-54 -246)"><g transform="translate(63 252)"><g class="c" transform="matrix(1, 0, 0, 1, -9, -6)"><path class="a" d="M696.073,120.51a27.355,27.355,0,1,1,27.356-27.355A27.386,27.386,0,0,1,696.073,120.51Zm0-52.1a24.75,24.75,0,1,0,24.75,24.75A24.778,24.778,0,0,0,696.073,68.405Z" transform="translate(-659.72 -59.8)"/></g></g><g transform="translate(-793.592 -303.267)"><path class="b" d="M904.994,582.966a20.7,20.7,0,1,0-20.7,20.7A20.7,20.7,0,0,0,904.994,582.966Z" transform="translate(0 0)"/><path class="a" d="M923.1,598.908v-1.961a1.039,1.039,0,0,1,1.084-1.179h2.752v-4.2l-3.789-.017c-4.206,0-5.161,3.134-5.161,5.14v2.215h-2.431v4.9h2.452v12.26h4.9v-12.26h3.64l.448-4.9Z" transform="translate(-36.983 -20.844)"/></g></g></svg>