<svg xmlns="http://www.w3.org/2000/svg" xmlns:xlink="http://www.w3.org/1999/xlink" width="72.711" height="72.711" viewBox="0 0 72.711 72.711"><defs><style>.a{fill:none;}.b{fill:#e5e5e5;}.c{clip-path:url(#a);}.d{fill:#2196f3;}.e{fill:#1e88e5;}.f{fill:#f44336;}.g{fill:#e53935;}.h{fill:#4caf50;}.i{fill:#43a047;}.j{fill:#ffc107;}.k{fill:#ffb300;}.l{fill:#fff;}.m{filter:url(#b);}</style><clipPath id="a"><rect class="a" width="26.914" height="26.914"/></clipPath><filter id="b" x="0" y="0" width="72.711" height="72.711" filterUnits="userSpaceOnUse"><feOffset dy="3" input="SourceAlpha"/><feGaussianBlur stdDeviation="3" result="c"/><feFlood flood-opacity="0.161"/><feComposite operator="in" in2="c"/><feComposite in="SourceGraphic"/></filter></defs><g transform="translate(9 6)"><ellipse class="b" cx="20.399" cy="20.399" rx="20.399" ry="20.399" transform="translate(6.956 7.008)"/><g transform="translate(13.898 13.898)"><g class="c"><path class="d" d="M987.412,105.068a.217.217,0,0,1,.217.216v2.274a13.458,13.458,0,1,1-4.1-9.671.217.217,0,0,1,0,.31l-3.218,3.217a.215.215,0,0,1-.3,0,8.473,8.473,0,1,0,2.261,8.631h-7.886a.217.217,0,0,1-.217-.217v-4.549a.217.217,0,0,1,.217-.217h13.023Zm0,0" transform="translate(-960.715 -94.102)"/><path class="e" d="M989.623,106.986H988a.217.217,0,0,1,.217.216v2.274a13.445,13.445,0,0,1-12.646,13.433c.237.014.477.022.718.024a13.45,13.45,0,0,0,13.552-13.457V107.2a.217.217,0,0,0-.217-.216Zm0,0" transform="translate(-962.926 -96.02)"/></g><path class="f" d="M966.766,104.01l-4.086-2.953a13.459,13.459,0,0,1,21.142-3.169.217.217,0,0,1,0,.31l-3.218,3.217a.217.217,0,0,1-.3.005,8.475,8.475,0,0,0-13.54,2.59Zm0,0" transform="translate(-961.007 -94.102)"/><path class="g" d="M966.095,104.029l1.18.853a8.478,8.478,0,0,1,6.817-4.88l.067-.008c-.266-.026-.537-.039-.81-.039a8.45,8.45,0,0,0-7.254,4.074Zm0,0" transform="translate(-961.516 -94.973)"/><path class="g" d="M984.117,97.888a.218.218,0,0,1,0,.31l-2.612,2.611a8.612,8.612,0,0,1,.717.61.215.215,0,0,0,.3,0l3.218-3.217a.217.217,0,0,0,0-.31,13.414,13.414,0,0,0-9.357-3.786c-.272,0-.543.009-.812.025a13.415,13.415,0,0,1,8.546,3.761Zm0,0" transform="translate(-962.926 -94.102)"/><path class="h" d="M984.291,119.61a13.459,13.459,0,0,1-21.91-3.127l4.172-2.859a8.476,8.476,0,0,0,13.651,3.033Zm0,0" transform="translate(-960.963 -97.008)"/><path class="i" d="M967.068,113.624l-1.23.843a8.472,8.472,0,0,0,7.472,4.472q.41,0,.81-.038a8.483,8.483,0,0,1-7.053-5.277Zm0,0" transform="translate(-961.477 -97.008)"/><path class="i" d="M976.383,124.842a13.418,13.418,0,0,0,9.872-4.312l-1-.723a13.435,13.435,0,0,1-9.681,5.011c.268.016.539.025.81.025Zm0,0" transform="translate(-962.927 -97.928)"/><path class="j" d="M965.7,108.775a8.455,8.455,0,0,0,.609,3.159l-4.172,2.859a13.478,13.478,0,0,1,.255-12.52l4.086,2.953a8.436,8.436,0,0,0-.777,3.548Zm0,0" transform="translate(-960.715 -95.318)"/><path class="k" d="M965.663,113.145l1.23-.843a8.5,8.5,0,0,1,.169-6.708l-1.18-.853a8.516,8.516,0,0,0-.219,8.4Zm0,0" transform="translate(-961.302 -95.686)"/></g><g class="m" transform="matrix(1, 0, 0, 1, -9, -6)"><path class="l" d="M971.741,132.484A27.355,27.355,0,1,1,999.1,105.128,27.387,27.387,0,0,1,971.741,132.484Zm0-52.105a24.75,24.75,0,1,0,24.75,24.75A24.778,24.778,0,0,0,971.741,80.378Z" transform="translate(-935.39 -71.77)"/></g></g></svg>