<svg xmlns="http://www.w3.org/2000/svg" xmlns:xlink="http://www.w3.org/1999/xlink" width="72.711" height="72.71" viewBox="0 0 72.711 72.71"><defs><style>.a{fill:#007ab5;}.b{fill:#fff;}.c{filter:url(#a);}</style><filter id="a" x="0" y="0" width="72.711" height="72.71" filterUnits="userSpaceOnUse"><feOffset dy="3" input="SourceAlpha"/><feGaussianBlur stdDeviation="3" result="b"/><feFlood flood-opacity="0.161"/><feComposite operator="in" in2="b"/><feComposite in="SourceGraphic"/></filter></defs><g transform="translate(9 6)"><g transform="translate(0 0)"><ellipse class="a" cx="20.399" cy="20.399" rx="20.399" ry="20.399" transform="translate(6.956 6.956)"/><g class="c" transform="matrix(1, 0, 0, 1, -9, -6)"><path class="b" d="M879.98,125.649a27.355,27.355,0,1,1,27.356-27.355A27.386,27.386,0,0,1,879.98,125.649Zm0-52.1a24.75,24.75,0,1,0,24.75,24.75A24.778,24.778,0,0,0,879.98,73.544Z" transform="translate(-843.63 -64.94)"/></g><g transform="translate(16.179 13.926)"><path class="b" d="M872.041,95.46h5.111v16.419h-5.111ZM874.6,87.3a2.959,2.959,0,1,1-2.963,2.958A2.959,2.959,0,0,1,874.6,87.3" transform="translate(-871.634 -87.3)"/><path class="b" d="M881.88,96.816h4.895v2.246h.067a5.365,5.365,0,0,1,4.833-2.653c5.167,0,6.121,3.4,6.121,7.821v9.005h-5.1v-7.983c0-1.906-.037-4.354-2.653-4.354-2.656,0-3.062,2.074-3.062,4.216v8.122h-5.1Z" transform="translate(-873.159 -88.656)"/></g></g></g></svg>